<svg width="262" height="124" fill="none" xmlns="http://www.w3.org/2000/svg"><g clip-path="url(#a)"><path d="M0 9.8C0 6 3 3 6.8 3h106.4c3.8 0 6.8 3 6.8 6.8v107.4c0 3.8-3 6.8-6.8 6.8H6.8C3 124 0 121 0 117.2V9.8ZM136 9.8c0-3.8 3-6.8 6.8-6.8h106.4c3.8 0 6.8 3 6.8 6.8v107.4c0 3.8-3 6.8-6.8 6.8H142.8c-3.8 0-6.8-3-6.8-6.8V9.8Z" fill="#FCFDFE"/><path d="M13.5 16.7c0-.4-.3-.7-.7-.7-.5 0-.8.3-.8.7v89.6c0 2 1.7 3.7 3.8 3.7h90.4c.5 0 .8-.3.8-.7 0-.5-.3-.8-.8-.8H15.8c-1.3 0-2.3-1-2.3-2.2V16.7Z" fill="#D2D6E7"/><path d="M86.6 63c-1.7 4-4.2 7.2-8.4 7.6-3.9.4-6.8-.6-9.1-2.4a28.4 28.4 0 0 1-5.9-6.8c-3.2-4.6-6.3-9-12.9-9-3 0-6 2-9 5.4-3 3.3-5.7 7.8-8.2 12.6-5 9.5-8.5 19.9-9.6 23-.1.5-.6.7-1 .6a.7.7 0 0 1-.5-1c1.1-3.2 4.7-13.6 9.7-23.3 2.5-4.8 5.4-9.5 8.5-13 3-3.4 6.5-5.8 10.1-5.8 7.5 0 11 5 14 9.6 1.9 2.5 3.5 4.9 5.7 6.5a11 11 0 0 0 8 2.1c3.4-.3 5.5-2.8 7.2-6.7 1.4-3.3 2.3-7.3 3.3-11.5l.7-2.8a49.2 49.2 0 0 1 5.3-14.4c2.5-4 6.2-6.7 11.7-6.7.5 0 .8.3.8.7 0 .5-.3.8-.8.8-4.9 0-8 2.3-10.4 6a47.9 47.9 0 0 0-5 14l-.8 2.7c-1 4.2-2 8.4-3.4 11.7Z" fill="#D2D6E7"/><path fill-rule="evenodd" clip-rule="evenodd" d="M11.7 0c-1.4 0-2.8.4-4 1.3L5 3.3C2 4 0 6.5 0 9.7v107.4c0 3.8 3 6.8 6.8 6.8h112.1c3.8 0 6.8-3 6.8-6.8L126 6.8c0-3.8-3-6.8-6.8-6.8H11.7Zm101.6 4.5H6.8a5.3 5.3 0 0 0-5.3 5.3v107.4c0 3 2.4 5.3 5.3 5.3h106.5c2.9 0 5.2-2.4 5.2-5.3V9.8c0-3-2.3-5.3-5.2-5.3ZM223.3 24a4 4 0 0 0-4 4l-.3 72a4 4 0 0 0 4 4H239a4 4 0 0 0 4-4l.3-71.9a4 4 0 0 0-4-4h-15.9Zm15.9 1.6h-15.9a2.6 2.6 0 0 0-2.6 2.5l-.2 71.9c0 1.4 1.1 2.5 2.5 2.5h16c1.3 0 2.5-1 2.5-2.5l.2-71.9c0-1.4-1-2.5-2.5-2.5ZM149 74a4 4 0 0 1 4.1-4h16a4 4 0 0 1 4 4.1L173 100a4 4 0 0 1-4.1 4h-16a4 4 0 0 1-4-4.1l.2-25.9Zm4.1-2.5h16c1.3 0 2.5 1.2 2.5 2.6l-.1 25.9c0 1.4-1.2 2.5-2.6 2.5H153a2.6 2.6 0 0 1-2.5-2.6V74c0-1.4 1.2-2.5 2.6-2.5ZM188.2 46a4 4 0 0 0-4 4l-.3 49.9a4 4 0 0 0 4 4l16 .1a4 4 0 0 0 4-4l.2-50a4 4 0 0 0-4-4h-16Zm15.9 1.5h-16a2.6 2.6 0 0 0-2.5 2.5l-.2 49.9c0 1.4 1.2 2.6 2.6 2.6h15.9c1.4 0 2.5-1.1 2.5-2.5l.2-50c0-1.3-1.1-2.5-2.5-2.5Z" fill="#D2D6E7"/><path fill-rule="evenodd" clip-rule="evenodd" d="M143.7 1.3a6.8 6.8 0 0 1 4-1.3h107.5c3.8 0 6.8 3 6.8 6.8l-.3 110.4c0 3.8-3 6.8-6.8 6.8H142.8c-3.8 0-6.8-3-6.8-6.8V9.8c0-5.3 5-6.6 5-6.6l2.7-2Zm-1 3.2h106.6c2.9 0 5.2 2.4 5.2 5.3v107.4c0 3-2.3 5.3-5.2 5.3H142.8a5.3 5.3 0 0 1-5.3-5.3V9.8c0-3 2.4-5.3 5.3-5.3Z" fill="#D2D6E7"/></g><defs><clipPath id="a"><path fill="#fff" d="M0 0h262v124H0z"/></clipPath></defs></svg>
