<svg width="16" height="58" viewBox="0 0 16 58" fill="none" xmlns="http://www.w3.org/2000/svg">
  <path fill-rule="evenodd" clip-rule="evenodd"
    d="M11.2536 44.0552L7.99979 0.659424L4.74597 44.0552C2.31921 45.2557 0.650391 47.7572 0.650391 50.6486C0.650391 54.7087 3.94083 58 7.99979 58C12.0587 58 15.3492 54.7087 15.3492 50.6486C15.3492 47.7572 13.6804 45.2557 11.2536 44.0552ZM8.18344 54.5335C10.2962 54.5335 12.0045 52.824 12.0045 50.7207C12.0045 48.6174 10.2962 46.9079 8.18344 46.9079C6.07072 46.9079 4.36241 48.6174 4.36241 50.7207C4.36241 52.824 6.07072 54.5335 8.18344 54.5335ZM13.4743 50.7207C13.4743 53.6384 11.1055 56.0038 8.18344 56.0038C5.26135 56.0038 2.89253 53.6384 2.89253 50.7207C2.89253 47.8029 5.26135 45.4376 8.18344 45.4376C11.1055 45.4376 13.4743 47.8029 13.4743 50.7207Z"
    fill="#DFE1EC" />
</svg>