<svg width="40" height="156" viewBox="0 0 40 156" fill="none" xmlns="http://www.w3.org/2000/svg">
  <path fill-rule="evenodd" clip-rule="evenodd"
    d="M28.8547 118.062L20 0L11.1454 118.062C4.54139 121.328 0 128.134 0 136C0 147.046 8.95431 156 20 156C31.0457 156 40 147.046 40 136C40 128.134 35.4587 121.328 28.8547 118.062ZM20.4998 146.569C26.2491 146.569 30.898 141.918 30.898 136.196C30.898 130.474 26.2491 125.823 20.4998 125.823C14.7504 125.823 10.1016 130.474 10.1016 136.196C10.1016 141.918 14.7504 146.569 20.4998 146.569ZM34.898 136.196C34.898 144.134 28.4517 150.569 20.4998 150.569C12.5479 150.569 6.10156 144.134 6.10156 136.196C6.10156 128.258 12.5479 121.823 20.4998 121.823C28.4517 121.823 34.898 128.258 34.898 136.196Z"
    fill="#2F354D" />
</svg>