<svg width="16" height="9" viewBox="0 0 16 9" fill="none" xmlns="http://www.w3.org/2000/svg">
<path d="M3.93516 5.68066H5.1168C5.09401 6.19499 4.98984 6.63281 4.8043 6.99414C4.61875 7.35221 4.35182 7.62565 4.00352 7.81445C3.65846 8.00326 3.23691 8.09766 2.73887 8.09766C2.36126 8.09766 2.02272 8.0293 1.72324 7.89258C1.42702 7.75586 1.17474 7.55892 0.966406 7.30176C0.758073 7.04134 0.598567 6.72396 0.48789 6.34961C0.380468 5.97526 0.326757 5.55046 0.326757 5.0752V3.81543C0.326757 3.34017 0.382096 2.91536 0.492773 2.54102C0.606705 2.16667 0.769466 1.84928 0.981054 1.58887C1.19264 1.32845 1.4498 1.13151 1.75254 0.998047C2.05853 0.861328 2.40358 0.792969 2.78769 0.792969C3.27923 0.792969 3.69264 0.88737 4.02793 1.07617C4.36322 1.26497 4.622 1.54167 4.8043 1.90625C4.98659 2.27083 5.09238 2.71517 5.12168 3.23926H3.94004C3.92376 2.88444 3.87493 2.60124 3.79355 2.38965C3.71543 2.1748 3.59499 2.02018 3.43223 1.92578C3.27272 1.83138 3.05788 1.78418 2.78769 1.78418C2.56309 1.78418 2.3694 1.8265 2.20664 1.91113C2.04714 1.99577 1.9153 2.12272 1.81113 2.29199C1.71022 2.45801 1.63372 2.66797 1.58164 2.92188C1.53281 3.17253 1.5084 3.46712 1.5084 3.80566V5.0752C1.5084 5.40072 1.52956 5.6888 1.57187 5.93945C1.61419 6.1901 1.68255 6.40332 1.77695 6.5791C1.87135 6.75163 1.99668 6.88346 2.15293 6.97461C2.30918 7.0625 2.50449 7.10645 2.73887 7.10645C3.01881 7.10645 3.2418 7.0625 3.40781 6.97461C3.57708 6.88672 3.70241 6.73861 3.78379 6.53027C3.86517 6.32194 3.91562 6.03874 3.93516 5.68066ZM10.2217 7.00879V8H7.13574V7.00879H10.2217ZM7.44824 0.890625V8H6.26172V0.890625H7.44824ZM9.80664 3.84961V4.82617H7.13574V3.84961H9.80664ZM10.1924 0.890625V1.88672H7.13574V0.890625H10.1924ZM12.2846 0.890625L13.4516 3.4248L14.5893 0.890625H15.9223L14.1449 4.41113L15.9613 8H14.5844L13.4125 5.41211L12.2357 8H10.8832L12.7143 4.39648L10.9223 0.890625H12.2846Z" fill="#2F354D"/>
</svg>
