<svg width="17" height="16" viewBox="0 0 17 16" fill="none" xmlns="http://www.w3.org/2000/svg">
<g clip-path="url(#clip0_2021_161038)">
<path d="M14.5 1L14.9964 0.940038L14.9432 0.5H14.5H3.5H3V1V15V15.5H3.5H11.5H11.6674L11.801 15.3992C12.9897 14.5028 13.7585 13.1147 14.2575 11.6012C14.7581 10.0825 15.0033 8.38859 15.1111 6.81842C15.2192 5.24535 15.1905 3.77829 15.1352 2.7058C15.1075 2.16899 15.073 1.72964 15.0454 1.42361C15.0316 1.27056 15.0195 1.15077 15.0107 1.0687C15.0064 1.02767 15.0029 0.996054 15.0004 0.974426L14.9975 0.949538L14.9967 0.942838L14.9965 0.940948L14.9964 0.94037C14.9964 0.940184 14.9964 0.940038 14.5 1Z" fill="white" stroke="#9FAAC4"/>
<path d="M8.67969 11.0898L11.3125 10.9531L12.0156 15.0009H8.99277C10.1222 14.2405 10.0723 12.1187 8.67969 11.0898Z" fill="#ECEEF5"/>
<path d="M15 8C14.5 9.5 13 10 11.5 10.5C12 12 12.5 14.5 11.5 15.5" stroke="#9FAAC4"/>
<path d="M5.5 3.5H12.5" stroke="#9FAAC4" stroke-linecap="round"/>
<path d="M5.5 5.46484H12.5" stroke="#9FAAC4" stroke-linecap="round"/>
<path d="M5.5 7.50781H11" stroke="#9FAAC4" stroke-linecap="round"/>
<path d="M12.4628 14.7948L14.6526 9.5L11.5781 10.4047L12.4628 14.7948Z" fill="#9FAAC4"/>
</g>
<defs>
<clipPath id="clip0_2021_161038">
<rect width="16" height="16" fill="white" transform="translate(0.5)"/>
</clipPath>
</defs>
</svg>
