<svg width="16" height="8" viewBox="0 0 16 8" fill="none" xmlns="http://www.w3.org/2000/svg">
<path d="M2.21641 8H0.981054L0.99082 7.00879H2.21641C2.59727 7.00879 2.90163 6.9388 3.12949 6.79883C3.35736 6.6556 3.52174 6.4375 3.62266 6.14453C3.72357 5.85156 3.77402 5.47721 3.77402 5.02148V3.86426C3.77402 3.5127 3.74473 3.21322 3.68613 2.96582C3.63079 2.71517 3.5429 2.51172 3.42246 2.35547C3.30527 2.19596 3.15065 2.07878 2.95859 2.00391C2.76654 1.92578 2.53542 1.88672 2.26523 1.88672H0.95664V0.890625H2.26523C2.67214 0.890625 3.03997 0.955729 3.36875 1.08594C3.69753 1.21615 3.9791 1.4082 4.21348 1.66211C4.45111 1.91276 4.6334 2.22363 4.76035 2.59473C4.8873 2.96582 4.95078 3.39225 4.95078 3.87402V5.02148C4.95078 5.50326 4.8873 5.92969 4.76035 6.30078C4.6334 6.66862 4.45111 6.97949 4.21348 7.2334C3.97585 7.48405 3.68939 7.67448 3.3541 7.80469C3.01881 7.9349 2.63958 8 2.21641 8ZM1.65977 0.890625V8H0.473242V0.890625H1.65977ZM10.2168 7.00879V8H7.13086V7.00879H10.2168ZM7.44336 0.890625V8H6.25684V0.890625H7.44336ZM9.80176 3.84961V4.82617H7.13086V3.84961H9.80176ZM10.1875 0.890625V1.88672H7.13086V0.890625H10.1875ZM12.2797 0.890625L13.4467 3.4248L14.5844 0.890625H15.9174L14.14 4.41113L15.9564 8H14.5795L13.4076 5.41211L12.2309 8H10.8783L12.7094 4.39648L10.9174 0.890625H12.2797Z" fill="#2F354D"/>
</svg>
