<svg width="17" height="16" viewBox="0 0 17 16" fill="none" xmlns="http://www.w3.org/2000/svg">
<g clip-path="url(#clip0_2021_161067)">
<path d="M9.03945 8.74629L1.16986 6.21324C-0.785846 12.0383 4.97818 17.2256 11.397 14.8655C15.8114 13.2425 16.7528 7.53627 13.048 4.39354C13.9709 3.5021 13.513 1.57637 13.513 1.57637C12.7719 2.04483 12.1573 2.645 12.0058 3.87077C11.0253 3.42671 10.3466 3.79922 9.37373 4.52826C10.3766 5.41 11.859 5.22829 12.5951 4.8122C14.6254 5.45105 13.4637 10.5685 9.03945 8.74629Z" fill="#72FFFF" stroke="#18C0E4"/>
<path d="M13.0473 4.39256C16.7521 7.53529 15.8107 13.2415 11.3963 14.8645C6.75352 16.5716 -0.433351 12.3091 1.36094 6.8327C4.80295 7.41569 5.32016 11.3386 7.78769 12.6987C10.8632 14.6517 12.4218 10.8318 10.2332 9.15618C13.5111 9.51816 14.3967 5.37834 12.5944 4.81122C11.8583 5.22731 10.3759 5.40901 9.37301 4.52727C10.3459 3.79824 11.0246 3.42573 12.0051 3.86978C12.1566 2.64402 12.7712 2.04385 13.5123 1.57539C13.5123 1.57539 13.9702 3.50111 13.0473 4.39256Z" fill="#18C0E4" stroke="#18C0E4"/>
<path d="M8.50152 13.3694C13.5366 15.2001 12.9619 11.9405 14.8483 11.7124C10.3556 10.5101 12.046 13.7024 8.50152 13.3694Z" fill="#72FFFF"/>
<circle cx="9.25" cy="11.0742" r="0.5" fill="#18C0E4"/>
</g>
<defs>
<clipPath id="clip0_2021_161067">
<rect width="16" height="16" fill="white" transform="translate(0.0546875)"/>
</clipPath>
</defs>
</svg>
