<svg xmlns="http://www.w3.org/2000/svg" width="404" height="73" fill="none"><g clip-path="url(#a)"><path fill="#FFCB47" d="M59.8 44c3-7.4 9-19.5 21.3-29.1a72.8 72.8 0 0 1 87 0A69.3 69.3 0 0 1 189.4 44a68.6 68.6 0 0 1-21.3 31.3 71.5 71.5 0 0 1-87 0A68.6 68.6 0 0 1 59.8 44Z"/><path fill="#fff" d="M60.3 44C83.6 21 133-1 184 39.9c-51.2 40.4-97.9 34.7-123.7 4.3Z"/><path fill="#14C393" d="M164.9 43.7c1.4 21-17.8 38.2-39.7 38.2-22 0-38.6-15-40-36.5-.6-10 3-18.1 7.5-22.1a81.6 81.6 0 0 1 64.6.4c4.2 5.2 7 10.1 7.6 20Z"/><path fill="#8AFFCE" d="M106.3 39.5C103 33.8 87 33 85 39.5 83 46 85.7 54.2 89 61.3c14.4-2.2 22.5-2.3 36.9-2L164 42v-2.5c-3.7-6.1-17.8-5.5-21.2 0h-36.6Z"/><path fill="#2F354D" fill-rule="evenodd" d="M120 17.6c-9.1.5-18.2 2.6-27.2 6.2a33.9 33.9 0 0 0-.4 40.8 85 85 0 0 0 65.4 0 33.8 33.8 0 0 0-.3-40.6c-12.2-5-24.9-7.1-37.5-6.4ZM159.3 64a34.6 34.6 0 0 0-.3-39.4c7.2 3 14.3 7.1 21.2 12.1l.5-.7A93 93 0 0 0 120 16.7a97.4 97.4 0 0 0-60 27l.6.7.2-.1-.5.5a108.2 108.2 0 0 0 31.6 20.7 86 86 0 0 0 33.5 6.6c22.5-.1 44.9-9.3 64.7-27.3l-.6-.7A110.1 110.1 0 0 1 159.3 64Zm-68.5 0a34.6 34.6 0 0 1 .4-39.5c-10.5 4.4-20.7 11-30.3 19.7a108 108 0 0 0 30 19.9Z" clip-rule="evenodd"/><path fill="#2F354D" d="M122.1 17.2c-1-6.3 0-13.4 2-16.8a66.4 66.4 0 0 0-64.3 43.1c20-16.9 31.8-22.9 62.3-26.3ZM60.3 44.8c9.2 7.7 15 11.8 24.4 16.6l-14 3a65 65 0 0 1-10.4-19.6Z"/><path fill="#FFCB47" fill-rule="evenodd" d="M167.7 15.2c-24.3-19-61.9-19-86.3 0a68.6 68.6 0 0 0-21 28.7c1.7 5 4.8 12.3 10.3 19.6l-.7.5c-5.7-7.5-8.8-15-10.6-20V43.7c3-7.4 9.1-19.6 21.5-29.2a73.3 73.3 0 0 1 87.4 0l-.3.3.3-.3a66 66 0 0 1 16.2 18.4l-.8.5a67.5 67.5 0 0 0-16-18.2Z" clip-rule="evenodd"/><g filter="url(#b)" opacity=".7" style="mix-blend-mode:lighten"><path fill="#375BE9" d="M161.9 45A37.9 37.9 0 0 1 123 81.8a37.8 37.8 0 0 1-37.2-38.4 37.9 37.9 0 0 1 38.8-36.8c21 .4 37.7 17.6 37.3 38.4Z"/></g><path fill="#2F354D" d="M143.7 44.8a19 19 0 0 1-19 18.8 19 19 0 0 1-19.1-18.8 19 19 0 0 1 19-18.8 19 19 0 0 1 19 18.8Z"/><path fill="#2F354D" d="M75.7 86h328.1C300 40.2 272.2 3.3 187 32 158 42 122.8 59.1 75.7 86Z"/><path fill="#14C393" d="M1.8 86.4c80.2-45 160.4-38.5 333.6 0H1.8Z"/><path fill="#2F354D" fill-rule="evenodd" d="M331.2 86H3.4c79-43.6 158.4-37.5 327.8 0ZM1.5 86c80.4-45 160.7-38.5 333.9 0l-.1.9H0l1.5-.9Z" clip-rule="evenodd"/><path fill="#14C393" fill-rule="evenodd" d="M298.5 35.6c-27.8-11.9-52.3-17-85.2-10.2a.5.5 0 0 1-.5-.4c0-.2.1-.5.3-.5 33.2-6.7 57.8-1.6 85.7 10.2 13 5.5 26.5 12.5 42 20.3l3.8 2c17 8.6 36.3 18.4 59.4 28.6l-.2.8H75.7a.5.5 0 0 1-.5-.4c0-.3.2-.5.5-.5h326a1157.7 1157.7 0 0 1-61.3-29.7c-15.5-7.8-29-14.8-42-20.2Zm-100-7c0 .2 0 .4-.3.5l-5 1.5c-.2 0-.5 0-.6-.3 0-.3 0-.5.3-.6l5-1.5c.3 0 .5.1.6.3Zm-56.7 22.3c.1.2 0 .5-.2.6l-6.3 3-3.4 1.6-1.4.7-.2-.4.2.4c-.2.1-.5 0-.6-.2-.1-.2 0-.5.2-.6l.2.4-.2-.4 1.4-.7a7087.9 7087.9 0 0 1 9.7-4.6c.2-.2.5 0 .6.2Z" clip-rule="evenodd"/><path fill="#FFCB47" d="M178.4 30.8c3.5-4.2 6-4.8 11.6-2.9l5.3 13.9c-3.2 5.7-6 6.2-12.5 4.1-3.7 4-6.3 4.3-11.4 2-2.5 3.2-4.6 3.1-8.7 2l-1.8-9.8c1.3-4.2 3.3-5 8.4-4.7 2-4.6 3.6-5.8 9-4.6ZM202.2 38.2l-4.3-15c3.4-4.1 5.7-5 11.4-2.8l5 13.7c-3.4 7.3-6.5 6-12.1 4.1Z"/><path fill="#2F354D" d="M212.5 34c.2.2.2.5 0 .7-.3.4-1 .8-1.6 1.1a18 18 0 0 1-6.4 1.7.4.4 0 0 1-.4-.5c0-.2.2-.4.5-.4l1.5-.1a18 18 0 0 0 4.4-1.5c.6-.3 1.1-.6 1.4-1h.6Z"/><path fill="#2F354D" fill-rule="evenodd" d="M209.6 20c-2.4-1-4.4-1.5-6.3-1-1.9.4-3.6 1.6-5.6 3.8l-.1.2 4.3 15.5h.2c3.2 1.6 5.7 2.2 7.9 1.6 2.2-.7 3.8-2.6 5.2-5.9v-.1l-5.4-14-.2-.1Zm-6.9 17.9-4.1-14.7c1.8-2 3.3-3 5-3.4 1.5-.3 3.3 0 5.5 1l5.2 13.2c-1.4 3.1-2.8 4.7-4.6 5.2-1.7.5-4 0-7-1.3Z" clip-rule="evenodd"/><path fill="#2F354D" d="M192.6 41.8c.2-.2.2-.5 0-.7a.5.5 0 0 0-.6 0 5 5 0 0 1-1.4.8 16.8 16.8 0 0 1-5.5 1.3c-.2 0-.5.2-.5.4s.1.5.4.5h1.7a18.9 18.9 0 0 0 4.3-1.4c.7-.3 1.2-.6 1.6-1ZM181.3 44.7c.2.2.1.5 0 .6-.5.3-1.1.6-1.8.8a19 19 0 0 1-6.4.5.4.4 0 0 1-.3-.5c.1-.3.4-.4.6-.3h1.4a19.2 19.2 0 0 0 4.4-.6l1.5-.6c.2-.2.5-.1.6.1ZM170.1 47c.2 0 .2-.4 0-.5a.5.5 0 0 0-.6 0l-1 .5a10.5 10.5 0 0 1-4.4.6c-.3-.1-.5 0-.6.2-.1.2 0 .5.3.6.3.1.8.2 1.3.1a11.7 11.7 0 0 0 3.6-.6c.6-.2 1-.5 1.4-.8Z"/><path fill="#2F354D" fill-rule="evenodd" d="M190.2 27.6c-2.3-1-4.3-1.5-6.2-1-1.9.3-3.6 1.5-5.5 3.6-4.5-1.6-8.4 1-9.3 4.8a7 7 0 0 0-5.2.4 7 7 0 0 0-3.5 4.6l1.8 9.9h.2c3.1 1.8 7 1.4 9.5-1.3 1.7 1 4 1.3 6 1 2.3-.4 4.3-1.5 5.2-3.3 3 1.4 5.9 1.3 8 .4a8 8 0 0 0 4.7-5v-.1l-5.5-14h-.2Zm-6.9 17.8-4-14.6c1.7-2 3.3-3 4.9-3.4 1.6-.3 3.3 0 5.5 1l5.2 13.2c-.6 1.9-2 3.5-4 4.3-2 .8-4.6.9-7.6-.5Zm-.8.4L178.4 31c-4.3-1.5-7.8 1-8.4 4.5l2 12a8 8 0 0 0 6 1c2-.3 3.8-1.4 4.5-2.8ZM171.2 48l-2-12.2a6 6 0 0 0-4.8.3 6.1 6.1 0 0 0-3 4l1.7 9c2.8 1.5 6 1.2 8.1-1Z" clip-rule="evenodd"/></g><defs><clipPath id="a"><path fill="#fff" d="M0 0h404v90H0z"/></clipPath><filter id="b" width="166.6" height="165.7" x="40.5" y="-38.7" color-interpolation-filters="sRGB" filterUnits="userSpaceOnUse"><feFlood flood-opacity="0" result="BackgroundImageFix"/><feBlend in="SourceGraphic" in2="BackgroundImageFix" result="shape"/><feGaussianBlur result="effect1_foregroundBlur_2020_159229" stdDeviation="22.6"/></filter></defs></svg>